<?xml version="1.0" encoding="UTF-8"?>
<!DOCTYPE svg PUBLIC "-//W3C//DTD SVG 1.1//EN" "http://www.w3.org/Graphics/SVG/1.1/DTD/svg11.dtd">
<svg xmlns="http://www.w3.org/2000/svg" xmlns:xlink="http://www.w3.org/1999/xlink" version="1.1" width="686px" height="436px" viewBox="-0.5 -0.5 686 436"><defs><clipPath id="mx-clip-299-283-122-30-0"><rect x="299" y="283" width="122" height="30"/></clipPath><clipPath id="mx-clip-269-283-22-30-0"><rect x="269" y="283" width="22" height="30"/></clipPath><clipPath id="mx-clip-299-313-122-30-0"><rect x="299" y="313" width="122" height="30"/></clipPath><clipPath id="mx-clip-269-313-22-30-0"><rect x="269" y="313" width="22" height="30"/></clipPath><clipPath id="mx-clip-299-343-122-30-0"><rect x="299" y="343" width="122" height="30"/></clipPath><clipPath id="mx-clip-269-343-22-30-0"><rect x="269" y="343" width="22" height="30"/></clipPath><clipPath id="mx-clip-299-378-122-26-0"><rect x="299" y="378" width="122" height="26"/></clipPath><clipPath id="mx-clip-299-404-122-26-0"><rect x="299" y="404" width="122" height="26"/></clipPath><clipPath id="mx-clip-34-26-122-30-0"><rect x="34" y="26" width="122" height="30"/></clipPath><clipPath id="mx-clip-4-26-22-30-0"><rect x="4" y="26" width="22" height="30"/></clipPath><clipPath id="mx-clip-34-61-122-26-0"><rect x="34" y="61" width="122" height="26"/></clipPath><clipPath id="mx-clip-34-87-122-26-0"><rect x="34" y="87" width="122" height="26"/></clipPath><clipPath id="mx-clip-34-113-122-26-0"><rect x="34" y="113" width="122" height="26"/></clipPath><clipPath id="mx-clip-34-139-122-26-0"><rect x="34" y="139" width="122" height="26"/></clipPath><clipPath id="mx-clip-34-165-122-26-0"><rect x="34" y="165" width="122" height="26"/></clipPath><clipPath id="mx-clip-559-37-122-30-0"><rect x="559" y="37" width="122" height="30"/></clipPath><clipPath id="mx-clip-529-37-22-30-0"><rect x="529" y="37" width="22" height="30"/></clipPath><clipPath id="mx-clip-559-67-122-30-0"><rect x="559" y="67" width="122" height="30"/></clipPath><clipPath id="mx-clip-529-67-22-30-0"><rect x="529" y="67" width="22" height="30"/></clipPath><clipPath id="mx-clip-559-102-122-26-0"><rect x="559" y="102" width="122" height="26"/></clipPath><clipPath id="mx-clip-559-128-122-26-0"><rect x="559" y="128" width="122" height="26"/></clipPath><clipPath id="mx-clip-559-154-122-26-0"><rect x="559" y="154" width="122" height="26"/></clipPath></defs><g><path d="M 160 121 L 180 121 Q 190 121 192.12 130.77 L 232.88 318.23 Q 235 328 245 328 L 265 328" fill="none" stroke="#000000" stroke-miterlimit="10" pointer-events="stroke"/><path d="M 265 324 L 257 328 L 265 332" fill="none" stroke="#000000" stroke-miterlimit="10" pointer-events="all"/><path d="M 160 95 L 180 95 Q 190 95 199.99 94.57 L 485.01 82.43 Q 495 82 505 82 L 525 82" fill="none" stroke="#000000" stroke-miterlimit="10" pointer-events="stroke"/><path d="M 525 78 L 517 82 L 525 86" fill="none" stroke="#000000" stroke-miterlimit="10" pointer-events="all"/><path d="M 425 358 L 445 358 Q 455 358 456.77 348.16 L 493.23 145.84 Q 495 136 505 136 L 525 136" fill="none" stroke="#000000" stroke-miterlimit="10" pointer-events="stroke"/><path d="M 425 362 L 433 358 L 425 354" fill="none" stroke="#000000" stroke-miterlimit="10" pointer-events="all"/><path d="M 265 283 L 265 257 L 425 257 L 425 283" fill="#ffffff" stroke="#000000" stroke-miterlimit="10" pointer-events="all"/><path d="M 265 283 L 265 435 L 425 435 L 425 283" fill="none" stroke="#000000" stroke-miterlimit="10" pointer-events="none"/><path d="M 265 283 L 425 283" fill="none" stroke="#000000" stroke-miterlimit="10" pointer-events="none"/><g fill="#000000" font-family="Helvetica" font-weight="bold" text-anchor="middle" font-size="14px"><text x="344.5" y="275.5">BlogComment</text></g><path d="M 265 283 M 425 283 M 425 313 L 265 313" fill="none" stroke="#000000" stroke-miterlimit="10" pointer-events="none"/><g fill="#000000" font-family="Helvetica" font-weight="bold" text-decoration="underline" clip-path="url(#mx-clip-299-283-122-30-0)" font-size="12px"><text x="300.5" y="302.5">id</text></g><path d="M 265 283 M 295 283 L 295 313 M 265 313" fill="none" stroke="#000000" stroke-miterlimit="10" pointer-events="none"/><g fill="#000000" font-family="Helvetica" font-weight="bold" clip-path="url(#mx-clip-269-283-22-30-0)" font-size="12px"><text x="270.5" y="302.5">PK</text></g><g fill="#000000" font-family="Helvetica" text-decoration="underline" clip-path="url(#mx-clip-299-313-122-30-0)" font-size="12px"><text x="300.5" y="332.5">author</text></g><path d="M 265 313 M 295 313 L 295 343 M 265 343" fill="none" stroke="#000000" stroke-miterlimit="10" pointer-events="none"/><g fill="#000000" font-family="Helvetica" clip-path="url(#mx-clip-269-313-22-30-0)" font-size="12px"><text x="270.5" y="332.5">FK</text></g><path d="M 265 343 M 425 343 M 425 373 L 265 373" fill="none" stroke="#000000" stroke-miterlimit="10" pointer-events="none"/><g fill="#000000" font-family="Helvetica" text-decoration="underline" clip-path="url(#mx-clip-299-343-122-30-0)" font-size="12px"><text x="300.5" y="362.5">correlatedPost</text></g><path d="M 265 343 M 295 343 L 295 373 M 265 373" fill="none" stroke="#000000" stroke-miterlimit="10" pointer-events="none"/><g fill="#000000" font-family="Helvetica" clip-path="url(#mx-clip-269-343-22-30-0)" font-size="12px"><text x="270.5" y="362.5">FK</text></g><path d="M 265 373 M 425 373 M 425 399 M 265 399" fill="none" stroke="#000000" stroke-miterlimit="10" pointer-events="none"/><g fill="#000000" font-family="Helvetica" clip-path="url(#mx-clip-299-378-122-26-0)" font-size="12px"><text x="300.5" y="390.5">content</text></g><path d="M 265 373 M 295 373 L 295 399 M 265 399" fill="none" stroke="#000000" stroke-miterlimit="10" pointer-events="none"/><path d="M 265 399 M 425 399 M 425 425 M 265 425" fill="none" stroke="#000000" stroke-miterlimit="10" pointer-events="none"/><g fill="#000000" font-family="Helvetica" clip-path="url(#mx-clip-299-404-122-26-0)" font-size="12px"><text x="300.5" y="416.5">pubblicationDate</text></g><path d="M 265 399 M 295 399 L 295 425 M 265 425" fill="none" stroke="#000000" stroke-miterlimit="10" pointer-events="none"/><path d="M 265 425 M 425 425 M 425 435 M 265 435" fill="none" stroke="#000000" stroke-miterlimit="10" pointer-events="none"/><path d="M 265 425 M 295 425 L 295 435 M 265 435" fill="none" stroke="#000000" stroke-miterlimit="10" pointer-events="none"/><path d="M 0 26 L 0 0 L 160 0 L 160 26" fill="#ffffff" stroke="#000000" stroke-miterlimit="10" pointer-events="none"/><path d="M 0 26 L 0 196 L 160 196 L 160 26" fill="none" stroke="#000000" stroke-miterlimit="10" pointer-events="none"/><path d="M 0 26 L 160 26" fill="none" stroke="#000000" stroke-miterlimit="10" pointer-events="none"/><g fill="#000000" font-family="Helvetica" font-weight="bold" text-anchor="middle" font-size="14px"><text x="79.5" y="18.5">BlogUser</text></g><path d="M 0 26 M 160 26 M 160 56 L 0 56" fill="none" stroke="#000000" stroke-miterlimit="10" pointer-events="none"/><g fill="#000000" font-family="Helvetica" font-weight="bold" text-decoration="underline" clip-path="url(#mx-clip-34-26-122-30-0)" font-size="12px"><text x="35.5" y="45.5">id</text></g><path d="M 0 26 M 30 26 L 30 56 M 0 56" fill="none" stroke="#000000" stroke-miterlimit="10" pointer-events="none"/><g fill="#000000" font-family="Helvetica" font-weight="bold" clip-path="url(#mx-clip-4-26-22-30-0)" font-size="12px"><text x="5.5" y="45.5">PK</text></g><path d="M 0 56 M 160 56 M 160 82 M 0 82" fill="none" stroke="#000000" stroke-miterlimit="10" pointer-events="none"/><g fill="#000000" font-family="Helvetica" clip-path="url(#mx-clip-34-61-122-26-0)" font-size="12px"><text x="35.5" y="73.5">username</text></g><path d="M 0 56 M 30 56 L 30 82 M 0 82" fill="none" stroke="#000000" stroke-miterlimit="10" pointer-events="none"/><path d="M 0 82 M 160 82 M 160 108 M 0 108" fill="none" stroke="#000000" stroke-miterlimit="10" pointer-events="none"/><g fill="#000000" font-family="Helvetica" clip-path="url(#mx-clip-34-87-122-26-0)" font-size="12px"><text x="35.5" y="99.5">password</text></g><path d="M 0 82 M 30 82 L 30 108 M 0 108" fill="none" stroke="#000000" stroke-miterlimit="10" pointer-events="none"/><path d="M 0 108 M 160 108 M 160 134 M 0 134" fill="none" stroke="#000000" stroke-miterlimit="10" pointer-events="none"/><g fill="#000000" font-family="Helvetica" clip-path="url(#mx-clip-34-113-122-26-0)" font-size="12px"><text x="35.5" y="125.5">roles</text></g><path d="M 0 108 M 30 108 L 30 134 M 0 134" fill="none" stroke="#000000" stroke-miterlimit="10" pointer-events="none"/><path d="M 0 134 M 160 134 M 160 160 M 0 160" fill="none" stroke="#000000" stroke-miterlimit="10" pointer-events="none"/><g fill="#000000" font-family="Helvetica" clip-path="url(#mx-clip-34-139-122-26-0)" font-size="12px"><text x="35.5" y="151.5">permissions</text></g><path d="M 0 134 M 30 134 L 30 160 M 0 160" fill="none" stroke="#000000" stroke-miterlimit="10" pointer-events="none"/><path d="M 0 160 M 160 160 M 160 186 M 0 186" fill="none" stroke="#000000" stroke-miterlimit="10" pointer-events="none"/><g fill="#000000" font-family="Helvetica" clip-path="url(#mx-clip-34-165-122-26-0)" font-size="12px"><text x="35.5" y="177.5">active</text></g><path d="M 0 160 M 30 160 L 30 186 M 0 186" fill="none" stroke="#000000" stroke-miterlimit="10" pointer-events="none"/><path d="M 0 186 M 160 186 M 160 196 M 0 196" fill="none" stroke="#000000" stroke-miterlimit="10" pointer-events="none"/><path d="M 0 186 M 30 186 L 30 196 M 0 196" fill="none" stroke="#000000" stroke-miterlimit="10" pointer-events="none"/><path d="M 525 37 L 525 11 L 685 11 L 685 37" fill="#ffffff" stroke="#000000" stroke-miterlimit="10" pointer-events="none"/><path d="M 525 37 L 525 185 L 685 185 L 685 37" fill="none" stroke="#000000" stroke-miterlimit="10" pointer-events="none"/><path d="M 525 37 L 685 37" fill="none" stroke="#000000" stroke-miterlimit="10" pointer-events="none"/><g fill="#000000" font-family="Helvetica" font-weight="bold" text-anchor="middle" font-size="14px"><text x="604.5" y="29.5">BlogPost</text></g><path d="M 525 37 M 685 37 M 685 67 L 525 67" fill="none" stroke="#000000" stroke-miterlimit="10" pointer-events="none"/><g fill="#000000" font-family="Helvetica" font-weight="bold" text-decoration="underline" clip-path="url(#mx-clip-559-37-122-30-0)" font-size="12px"><text x="560.5" y="56.5">id</text></g><path d="M 525 37 M 555 37 L 555 67 M 525 67" fill="none" stroke="#000000" stroke-miterlimit="10" pointer-events="none"/><g fill="#000000" font-family="Helvetica" font-weight="bold" clip-path="url(#mx-clip-529-37-22-30-0)" font-size="12px"><text x="530.5" y="56.5">PK</text></g><path d="M 525 67 M 685 67 M 685 97 L 525 97" fill="none" stroke="#000000" stroke-miterlimit="10" pointer-events="none"/><g fill="#000000" font-family="Helvetica" text-decoration="underline" clip-path="url(#mx-clip-559-67-122-30-0)" font-size="12px"><text x="560.5" y="86.5">author</text></g><path d="M 525 67 M 555 67 L 555 97 M 525 97" fill="none" stroke="#000000" stroke-miterlimit="10" pointer-events="none"/><g fill="#000000" font-family="Helvetica" clip-path="url(#mx-clip-529-67-22-30-0)" font-size="12px"><text x="530.5" y="86.5">FK</text></g><path d="M 525 97 M 685 97 M 685 123 M 525 123" fill="none" stroke="#000000" stroke-miterlimit="10" pointer-events="none"/><g fill="#000000" font-family="Helvetica" clip-path="url(#mx-clip-559-102-122-26-0)" font-size="12px"><text x="560.5" y="114.5">title</text></g><path d="M 525 97 M 555 97 L 555 123 M 525 123" fill="none" stroke="#000000" stroke-miterlimit="10" pointer-events="none"/><path d="M 525 123 M 685 123 M 685 149 M 525 149" fill="none" stroke="#000000" stroke-miterlimit="10" pointer-events="none"/><g fill="#000000" font-family="Helvetica" clip-path="url(#mx-clip-559-128-122-26-0)" font-size="12px"><text x="560.5" y="140.5">content</text></g><path d="M 525 123 M 555 123 L 555 149 M 525 149" fill="none" stroke="#000000" stroke-miterlimit="10" pointer-events="none"/><path d="M 525 149 M 685 149 M 685 175 M 525 175" fill="none" stroke="#000000" stroke-miterlimit="10" pointer-events="none"/><g fill="#000000" font-family="Helvetica" clip-path="url(#mx-clip-559-154-122-26-0)" font-size="12px"><text x="560.5" y="166.5">pubblicationDate</text></g><path d="M 525 149 M 555 149 L 555 175 M 525 175" fill="none" stroke="#000000" stroke-miterlimit="10" pointer-events="none"/><path d="M 525 175 M 685 175 M 685 185 M 525 185" fill="none" stroke="#000000" stroke-miterlimit="10" pointer-events="none"/><path d="M 525 175 M 555 175 L 555 185 M 525 185" fill="none" stroke="#000000" stroke-miterlimit="10" pointer-events="none"/></g></svg>